<svg width="72" height="24" viewBox="0 0 72 24" fill="none" xmlns="http://www.w3.org/2000/svg">
<path d="M15.1815 11.8451C16.3617 11.9399 17.3531 12.4142 18.2028 13.3152C19.0525 14.2162 19.4774 15.4492 19.4774 17.0142C19.4774 18.9111 18.8637 20.476 17.5891 21.6142C16.3145 22.7523 14.5206 23.3214 12.113 23.3214H0.5V0.843018H12.0658C14.0957 0.843018 15.748 1.41209 16.9754 2.50281C18.2028 3.64096 18.8165 5.11106 18.8165 6.96054C18.8165 8.38322 18.4388 9.47395 17.6363 10.3276C16.8338 11.1812 16.0312 11.608 15.1343 11.7028L15.1815 11.8451ZM6.02327 10.1379H10.8384C11.641 10.1379 12.3019 9.90075 12.8211 9.42652C13.2932 8.9523 13.5765 8.38322 13.5765 7.57704C13.5765 6.8657 13.3404 6.34405 12.8684 5.91724C12.3963 5.49044 11.7826 5.30075 11.0745 5.30075H6.02327V10.1379ZM11.1217 18.8636C11.9714 18.8636 12.6795 18.6265 13.1516 18.1997C13.6237 17.7729 13.8597 17.1564 13.8597 16.3502C13.8597 15.5915 13.6237 15.0224 13.1044 14.5956C12.6323 14.1688 11.9714 13.9317 11.2161 13.9317H6.02327V18.8636H11.1217ZM38.5964 23.3214H33.262V21.709C31.9402 23.1317 30.1935 23.843 28.1164 23.843C26.1336 23.843 24.5758 23.1791 23.3956 21.8987C22.2154 20.6183 21.6017 18.9111 21.6017 16.8245V6.48632H26.889V15.6863C26.889 16.6822 27.1722 17.4884 27.6915 18.1049C28.2108 18.7214 28.9189 19.0059 29.7686 19.0059C30.8544 19.0059 31.7041 18.6265 32.3178 17.8678C32.9315 17.109 33.2148 15.9234 33.2148 14.3111V6.48632H38.5492L38.5964 23.3214ZM55.0718 23.3214H40.9096V22.3255L47.5658 10.7544H41.0984V6.48632H54.9774V7.48219L48.3211 19.0533H55.0246V23.3214H55.0718ZM71.5 23.3214H57.385V22.3255L63.994 10.7544H57.5266V6.48632H71.4056V7.48219L64.7493 19.0533H71.4528L71.5 23.3214Z" fill="#718087"/>
</svg>
