<svg width="98" height="19" viewBox="0 0 98 19" fill="none" xmlns="http://www.w3.org/2000/svg">
<path d="M33.419 0.29194V7.47772H23.4079V0.29194L19.7617 0.288696V18.4071H23.4079V10.6234H33.419V18.4071H37.0711V0.29194H33.419Z" fill="#718087"/>
<path d="M81.9258 0.292603V18.4034H97.9224L95.8964 15.2151H85.5823V10.624H95.5695V7.55306H85.5823V3.40632H95.8791L97.864 0.292603H81.9258Z" fill="#718087"/>
<path d="M6.20849 0.28772C2.41565 0.28772 0.5 2.59351 0.5 5.94858V12.7117C0.5 16.5944 2.96868 18.4072 6.18954 18.4072L17.6292 18.4061L15.5085 15.0944H6.89627C5.06667 15.0944 4.26958 14.4331 4.26958 12.3854V6.24946C4.26958 4.26997 4.9406 3.49776 6.94497 3.49776H15.5983L17.6346 0.28772H6.20849Z" fill="#718087"/>
<path d="M65.9234 0.283257C63.7329 0.283257 61.4877 1.59985 61.4877 4.9863V5.85645C61.4877 9.38684 63.6479 10.7337 65.8092 10.7429H73.3955C74.1834 10.7429 74.8235 10.8739 74.8235 12.2056L74.8224 13.7441C74.8024 14.9406 74.2055 15.2144 73.3684 15.2144H63.3882L61.3438 18.4028H73.6033C76.5595 18.4028 78.5666 16.9319 78.5666 13.5347V12.2863C78.5666 9.00156 76.7018 7.44956 73.8105 7.44956H66.5668C65.7638 7.44956 65.2042 7.2304 65.2042 6.04098V4.78824C65.2042 3.77523 65.5879 3.40563 66.5235 3.40563L76.0281 3.40184L78.0146 0.278931L65.9234 0.283257Z" fill="#718087"/>
<path d="M47.6648 0.292603L39.0742 18.4067H43.1344L44.8076 14.6658H54.1428L55.8106 18.4067H59.8886L51.278 0.292603H47.6648ZM49.4663 4.05352L52.7672 11.5824H46.1864L49.4663 4.05352Z" fill="#718087"/>
</svg>
