<svg width="96" height="21" viewBox="0 0 96 21" fill="none" xmlns="http://www.w3.org/2000/svg">
<path d="M95.1005 9.38607V7.72967H93.0438V5.15459L92.9747 5.17598L91.005 5.77864V7.72967H87.9556V6.64205C87.9263 6.23028 88.0456 5.82164 88.2917 5.49024C88.4103 5.3601 88.5564 5.25802 88.7194 5.1914C88.8824 5.12478 89.0582 5.09531 89.234 5.10511C89.5429 5.10923 89.8475 5.17849 90.1277 5.30837L90.2035 5.34225V3.59937L90.1679 3.58645C89.7981 3.47255 89.412 3.42103 89.0254 3.434C88.4611 3.4251 87.9038 3.55896 87.4051 3.82314C86.9367 4.07519 86.5507 4.4568 86.2934 4.92235C86.026 5.41723 85.8904 5.97262 85.8998 6.53507V7.72967H84.4676V9.38607H85.8998V16.3634H87.9556V9.38607H91.005V13.8186C91.005 15.6462 91.8662 16.5702 93.5654 16.5702C93.8589 16.5685 94.1514 16.5361 94.4381 16.4735C94.6583 16.4361 94.8722 16.3683 95.0738 16.272L95.101 16.2559V14.5844L95.0172 14.6397C94.8896 14.7204 94.7502 14.7806 94.6039 14.818C94.4722 14.8587 94.3357 14.8819 94.1979 14.8871C94.0376 14.9011 93.8762 14.8798 93.725 14.8247C93.5739 14.7697 93.4366 14.6821 93.3229 14.5683C93.1064 14.2422 93.008 13.8518 93.0438 13.462V9.38607H95.1005ZM79.8755 14.8884C79.5474 14.9055 79.2197 14.8483 78.9169 14.721C78.614 14.5937 78.3438 14.3997 78.1264 14.1533C77.6755 13.5589 77.4526 12.8226 77.4979 12.0779C77.4501 11.3159 77.6727 10.5614 78.1264 9.94727C78.3392 9.69913 78.6059 9.50287 78.9061 9.37347C79.2063 9.24408 79.5321 9.18496 79.8586 9.20064C80.1752 9.18543 80.4912 9.24164 80.7832 9.36509C81.0752 9.48855 81.3356 9.67609 81.5453 9.91384C81.9957 10.5225 82.2141 11.2718 82.1613 12.0271C82.2133 12.7851 82.0093 13.5386 81.5819 14.1667C81.3734 14.4116 81.1105 14.6043 80.8142 14.7295C80.5179 14.8546 80.1965 14.9096 79.8755 14.8884ZM79.9669 7.51839C79.3518 7.48456 78.7362 7.57714 78.1582 7.79042C77.5803 8.00371 77.0521 8.33316 76.6064 8.75846C76.1895 9.21375 75.8674 9.74752 75.6589 10.3286C75.4504 10.9097 75.3598 11.5265 75.3922 12.143C75.3627 12.7336 75.4524 13.3241 75.656 13.8792C75.8597 14.4344 76.173 14.9428 76.5774 15.3743C76.9988 15.7789 77.4982 16.0934 78.0452 16.2987C78.5921 16.5039 79.1752 16.5955 79.7587 16.568C80.3649 16.5978 80.9707 16.5014 81.5377 16.2851C82.1047 16.0687 82.6206 15.737 83.0528 15.311C83.4663 14.8601 83.7865 14.3319 83.9949 13.7568C84.2033 13.1816 84.2958 12.5709 84.267 11.9598C84.3318 10.7674 83.9224 9.59766 83.1282 8.70586C82.7122 8.29994 82.2163 7.98489 81.6721 7.7807C81.128 7.57651 80.5473 7.48764 79.9669 7.51973V7.51839ZM72.0772 7.51973C71.2223 7.48356 70.381 7.7435 69.6955 8.25566C69.4008 8.47943 69.1631 8.7697 69.0018 9.10279C68.8405 9.43588 68.7602 9.80236 68.7675 10.1724C68.7603 10.5389 68.8285 10.903 68.9676 11.2422C69.1058 11.5546 69.3163 11.8296 69.5819 12.0445C69.9647 12.3323 70.3845 12.5674 70.83 12.7434C71.1861 12.8833 71.5332 13.045 71.8695 13.2275C72.0464 13.3198 72.2022 13.4478 72.3272 13.6033C72.4188 13.7499 72.4631 13.921 72.4543 14.0936C72.4543 14.6731 72.0201 14.9557 71.1259 14.9557C70.7429 14.9466 70.3637 14.8772 70.0022 14.7502C69.5909 14.6158 69.2028 14.419 68.8513 14.1667L68.7657 14.1057V16.0852L68.7969 16.0999C69.1465 16.2526 69.512 16.3655 69.8868 16.4365C70.2693 16.5199 70.6592 16.5647 71.0506 16.5702C71.9486 16.6171 72.8358 16.3559 73.5651 15.8298C73.8647 15.5999 74.1057 15.3023 74.2684 14.9615C74.4311 14.6206 74.5109 14.2461 74.5012 13.8685C74.5159 13.3297 74.3372 12.8035 73.9975 12.3851C73.5217 11.891 72.9351 11.5174 72.2862 11.2952C71.8493 11.1489 71.4379 10.935 71.0671 10.6614C70.9826 10.5734 70.9171 10.4689 70.8747 10.3545C70.8324 10.2401 70.8141 10.1181 70.821 9.9963C70.8193 9.87615 70.8467 9.75737 70.9011 9.65021C70.9555 9.54305 71.0351 9.45071 71.1331 9.38117C71.3892 9.20397 71.6971 9.11708 72.0081 9.13423C72.3613 9.13591 72.7123 9.18983 73.0498 9.29425C73.3725 9.38833 73.6792 9.53048 73.9596 9.71593L74.0434 9.77343V7.89817L74.0113 7.88435C73.7135 7.76571 73.4039 7.67934 73.0877 7.62671C72.754 7.56132 72.415 7.52626 72.0749 7.52196L72.0772 7.51973ZM63.4083 14.8884C63.0802 14.9055 62.7525 14.8483 62.4496 14.721C62.1467 14.5937 61.8765 14.3997 61.6591 14.1533C61.2089 13.5595 60.9861 12.8241 61.0311 12.0802C60.9832 11.3181 61.2058 10.5636 61.6596 9.9495C61.8723 9.70127 62.139 9.50496 62.4392 9.37556C62.7394 9.24616 63.0652 9.18709 63.3918 9.20287C63.7084 9.18766 64.0244 9.24387 64.3164 9.36732C64.6083 9.49078 64.8688 9.67832 65.0785 9.91607C65.5289 10.5247 65.7473 11.2741 65.6945 12.0294C65.7465 12.7873 65.5424 13.5408 65.115 14.169C64.9066 14.4139 64.6437 14.6066 64.3474 14.7318C64.0511 14.8569 63.7296 14.911 63.4087 14.8897L63.4083 14.8884ZM63.5005 7.52062C62.8854 7.48674 62.2698 7.57929 61.6918 7.79258C61.1138 8.00586 60.5857 8.33535 60.14 8.76069C59.723 9.21594 59.4008 9.74969 59.1923 10.3308C58.9837 10.9119 58.893 11.5287 58.9254 12.1453C58.8958 12.7359 58.9856 13.3264 59.1893 13.8816C59.393 14.4367 59.7065 14.9451 60.1111 15.3765C60.5324 15.7811 61.0318 16.0957 61.5788 16.3009C62.1258 16.5062 62.7088 16.5978 63.2924 16.5702C63.8985 16.6 64.5043 16.5036 65.0713 16.2872C65.6383 16.0709 66.1542 15.7392 66.5864 15.3132C66.9999 14.8624 67.3201 14.3341 67.5285 13.759C67.7369 13.1838 67.8294 12.5731 67.8007 11.9621C67.8654 10.7695 67.4558 9.59976 66.6613 8.70809C66.2454 8.30222 65.7496 7.9872 65.2055 7.78302C64.6614 7.57883 64.0808 7.48993 63.5005 7.52196V7.52062ZM55.8047 9.22516V7.72967H53.7739V16.3634H55.8047V11.9465C55.7756 11.297 55.9529 10.6551 56.3111 10.1126C56.4547 9.89633 56.6503 9.7195 56.8799 9.59833C57.1096 9.47716 57.3659 9.41553 57.6256 9.41906C57.8321 9.4222 58.0374 9.45217 58.2362 9.50821C58.4036 9.5454 58.5636 9.61017 58.7096 9.69988L58.7952 9.76184V7.71496L58.7622 7.7007C58.5074 7.60964 58.2374 7.56862 57.967 7.5799C57.4707 7.57502 56.989 7.74765 56.6088 8.06666C56.2529 8.37925 55.9837 8.77845 55.8274 9.2256L55.8047 9.22516ZM50.137 7.52151C49.2765 7.50418 48.4261 7.70865 47.6676 8.11525C46.97 8.49909 46.4029 9.08235 46.0388 9.79037C45.655 10.5602 45.4631 11.4114 45.4794 12.2714C45.4693 13.0469 45.6564 13.8123 46.0232 14.4957C46.3713 15.1434 46.8989 15.6769 47.5427 16.0322C48.2245 16.3991 48.9889 16.585 49.763 16.572C50.6164 16.5994 51.462 16.4015 52.2146 15.9983L52.2414 15.9831V14.1221L52.1558 14.1846C51.8519 14.405 51.5171 14.5794 51.1622 14.7021C50.8505 14.8184 50.5217 14.8821 50.1892 14.8906C49.838 14.9077 49.4872 14.8506 49.1596 14.7229C48.832 14.5953 48.535 14.4 48.288 14.1498C47.7958 13.5829 47.5443 12.8462 47.5869 12.0967C47.5495 11.3262 47.8115 10.571 48.3179 9.98917C48.5608 9.72962 48.8564 9.52514 49.185 9.3895C49.5135 9.25387 49.8674 9.19023 50.2226 9.20287C50.9225 9.21386 51.6002 9.44968 52.1558 9.87551L52.2409 9.93746V7.97617L52.2133 7.96057C51.9176 7.80861 51.6009 7.70149 51.2737 7.64275C50.9003 7.5637 50.5199 7.52292 50.1383 7.52106L50.137 7.52151ZM44.0815 7.72923H42.0507V16.3634H44.0815V7.72923ZM43.087 4.05136C42.7653 4.04625 42.4544 4.16812 42.2218 4.39057C42.1048 4.49795 42.012 4.629 41.9495 4.77502C41.887 4.92105 41.8563 5.0787 41.8595 5.2375C41.8559 5.39338 41.8859 5.54821 41.9475 5.69149C42.009 5.83476 42.1006 5.96314 42.216 6.06792C42.4517 6.28704 42.7635 6.40569 43.0853 6.39867C43.4079 6.4051 43.7205 6.28678 43.958 6.06837C44.075 5.96434 44.1681 5.8362 44.2308 5.69276C44.2935 5.54933 44.3244 5.39401 44.3213 5.2375C44.323 5.08111 44.2924 4.92606 44.2316 4.78198C44.1708 4.6379 44.081 4.50785 43.9678 4.39993C43.8517 4.28538 43.7136 4.19546 43.5619 4.13556C43.4102 4.07566 43.2479 4.04702 43.0848 4.05136H43.087ZM38.0176 7.09225V16.3638H40.0903V4.31613H37.2219L33.5757 13.2645L30.0373 4.31613H27.0508V16.3629H28.9987V7.09136H29.0656L32.8018 16.3629H34.2728L37.9511 7.09136L38.0176 7.09225Z" fill="#718087"/>
<path d="M10.4761 9.84376H0.922394V0.290039H10.4761V9.84376Z" fill="#718087"/>
<path d="M21.0247 9.84376H11.471V0.290039H21.0247V9.84376Z" fill="#718087"/>
<path d="M10.4761 20.3959H0.922394V10.8422H10.4761V20.3959Z" fill="#718087"/>
<path d="M21.0247 20.3959H11.471V10.8422H21.0247V20.3959Z" fill="#718087"/>
</svg>
