<svg width="97" height="24" viewBox="0 0 97 24" fill="none" xmlns="http://www.w3.org/2000/svg">
<path opacity="0.8" d="M21.4845 16.2062V21.1646C19.682 22.7497 15.3749 23.6926 12.1682 23.6926C8.96558 23.6926 0.100952 21.7092 0.100952 12.3898C0.100952 3.07027 8.53857 1.06249 11.9424 1.06249C15.3503 1.06249 18.9799 1.68027 21.0821 3.07027V7.43128C21.0821 7.9759 20.3307 7.92713 20.3307 7.43128C20.2814 6.68751 18.2778 2.22895 13.2686 2.3265C7.8611 2.43623 4.20685 6.64281 4.20685 12.1906C4.20685 17.7384 7.75845 22.5018 13.1208 22.3514C14.8617 22.3026 16.6765 21.758 17.5551 21.0346L17.5757 16.2062C17.5757 14.8202 16.7257 14.3244 15.8758 14.3244C15.3215 14.3244 15.3215 13.5318 15.8758 13.5318H23.1843C23.7345 13.5318 23.7345 14.3731 23.1843 14.3244C22.3385 14.3244 21.4845 14.8202 21.4845 16.2062ZM70.7593 7.43535C70.7593 7.97997 70.2092 7.9312 70.2092 7.43535C70.1558 6.69158 68.1562 2.08264 63.147 2.18424C57.7395 2.28992 54.0812 6.64687 54.0812 12.1947C54.0812 17.7425 57.5876 22.6522 62.9458 22.5059C68.304 22.3555 70.8579 17.1044 71.0591 16.4094C71.2603 15.7144 71.6093 15.816 71.6093 16.3606V20.4249C69.4085 22.01 65.2492 23.6967 62.0466 23.6967C58.844 23.6967 49.9794 21.7133 49.9794 12.3938C49.9794 3.07027 58.3924 0.843018 61.7962 0.843018C65.2041 0.843018 68.6571 1.68433 70.7635 3.07027V7.43535H70.7593ZM48.0743 1.38764C48.8749 1.38764 48.8749 2.13141 48.0743 2.13141C47.2243 2.13141 46.3744 2.62726 46.3744 4.01319L46.2759 14.8446C46.2759 20.0307 42.0263 23.843 36.783 23.843C31.5398 23.843 27.4462 20.0307 27.4462 14.8446V4.01319C27.4462 2.62319 26.5922 2.13141 25.7423 2.13141C24.9416 2.13141 24.9416 1.38764 25.7423 1.38764H33.1534C33.9541 1.38764 33.9541 2.13141 33.1534 2.13141C32.2994 2.13141 31.4495 2.62726 31.4495 4.01319L31.4413 16.1086C31.4413 19.7665 34.4632 22.7335 38.1585 22.7335C41.8538 22.7335 44.8511 19.0227 44.8511 15.3689L44.6705 4.01319C44.6705 2.62319 43.8205 2.13141 42.9665 2.13141C42.17 2.13141 42.17 1.38764 42.9665 1.38764H48.0743ZM95.2469 7.43535C95.2469 7.97997 94.6967 7.9312 94.6967 7.43535C94.6475 6.69158 92.6438 2.08264 87.6346 2.18424C82.2271 2.28992 78.5688 6.64687 78.5688 12.1947C78.5688 17.7425 82.0752 22.6522 87.4334 22.5059C92.7916 22.3595 95.3455 17.1044 95.5467 16.4094C95.7478 15.7144 96.101 15.816 96.101 16.3606V20.4249C93.8961 22.01 89.7409 23.6967 86.5342 23.6967C83.3316 23.6967 74.467 21.7133 74.467 12.3938C74.467 3.07027 82.88 0.843018 86.2878 0.843018C89.6916 0.843018 93.1488 1.68433 95.251 3.07027V7.43535H95.2469Z" fill="#718087"/>
</svg>
