<svg width="86" height="27" viewBox="0 0 86 27" fill="none" xmlns="http://www.w3.org/2000/svg">
<path d="M44.8987 6.70527C44.8987 7.66702 44.1283 8.44143 43.1723 8.44143C42.2162 8.44143 41.4464 7.66702 41.4464 6.70527C41.4464 5.74353 42.19 4.96911 43.1723 4.96911C44.1554 4.99579 44.8987 5.77048 44.8987 6.70527ZM37.7819 10.2048V10.6323C37.7819 10.6323 36.9591 9.56329 35.2064 9.56329C32.3123 9.56329 30.0548 11.7806 30.0548 14.8524C30.0548 17.8977 32.2858 20.1414 35.2064 20.1414C36.9856 20.1414 37.7819 19.0463 37.7819 19.0463V19.5002C37.7819 19.7139 37.9416 19.8738 38.1538 19.8738H40.3044V9.82961H38.1538C37.9416 9.83041 37.7819 10.0177 37.7819 10.2048ZM37.7819 16.6422C37.384 17.23 36.5871 17.7376 35.6314 17.7376C33.932 17.7376 32.6306 16.6691 32.6306 14.8524C32.6306 13.0359 33.932 11.9674 35.6314 11.9674C36.5609 11.9674 37.4105 12.5016 37.7819 13.0626V16.6422ZM41.8979 9.83041H44.4469V19.8746H41.8979V9.83041ZM79.9764 9.56303C78.2238 9.56303 77.4004 10.632 77.4004 10.632V4.9958H74.8514V19.8746H77.0024C77.2149 19.8746 77.3738 19.6875 77.3738 19.5004V19.0465C77.3738 19.0465 78.1972 20.1417 79.9494 20.1417C82.844 20.1417 85.1009 17.8985 85.1009 14.8532C85.1009 11.8078 82.844 9.56303 79.9764 9.56303ZM79.5515 17.7106C78.5686 17.7106 77.7988 17.2036 77.4004 16.6155V13.0359C77.7988 12.5016 78.6485 11.9407 79.5515 11.9407C81.2508 11.9407 82.5519 13.0092 82.5519 14.8257C82.5519 16.6422 81.2511 17.7106 79.5515 17.7106ZM73.5239 13.9178V19.9013H70.9744V14.2114C70.9744 12.5555 70.4433 11.8873 69.0103 11.8873C68.2405 11.8873 67.4436 12.2881 66.9383 12.876V19.8748H64.3898V9.83068H66.4072C66.6197 9.83068 66.7791 10.0177 66.7791 10.2048V10.6323C67.5227 9.85736 68.505 9.56329 69.4873 9.56329C70.6028 9.56329 71.5323 9.88432 72.2758 10.5253C73.1783 11.2733 73.5239 12.2348 73.5239 13.9178ZM58.2018 9.56303C56.4497 9.56303 55.6263 10.632 55.6263 10.632V4.9958H53.0773V19.8746H55.2278C55.4403 19.8746 55.5997 19.6875 55.5997 19.5004V19.0465C55.5997 19.0465 56.4231 20.1417 58.1753 20.1417C61.0699 20.1417 63.3269 17.8985 63.3269 14.8532C63.3534 11.8075 61.0965 9.56303 58.2018 9.56303ZM57.7768 17.7106C56.7945 17.7106 56.0247 17.2036 55.6263 16.6155V13.0359C56.0247 12.5016 56.8744 11.9407 57.7768 11.9407C59.4767 11.9407 60.7776 13.0092 60.7776 14.8257C60.7776 16.6422 59.4767 17.7106 57.7768 17.7106ZM50.8731 9.56303C51.6429 9.56303 52.0414 9.69698 52.0414 9.69698V12.0741C52.0414 12.0741 49.9171 11.3528 48.5897 12.8758V19.901H46.0401V9.83041H48.1912C48.4037 9.83041 48.5626 10.0175 48.5626 10.2045V10.632C49.0411 10.0708 50.0768 9.56303 50.8731 9.56303ZM24.3992 18.9662C24.2666 18.6457 24.1337 18.2985 24.001 18.0045C23.7883 17.5238 23.5758 17.0694 23.3904 16.6422L23.3638 16.6155C21.5313 12.6084 19.5667 8.54844 17.4952 4.54188L17.4156 4.38123C17.1978 3.96559 16.9854 3.54704 16.7787 3.12568C16.5129 2.64454 16.2476 2.13751 15.8227 1.65637C14.973 0.587882 13.7514 0 12.4505 0C11.1226 0 9.9278 0.587885 9.05187 1.60273C8.65343 2.08334 8.3611 2.5909 8.09583 3.07204C7.88859 3.49314 7.67626 3.91169 7.45891 4.32759L7.37906 4.48824C5.33434 8.4948 3.34294 12.555 1.5107 16.5618L1.48392 16.6149C1.29823 17.043 1.08547 17.4969 0.872991 17.9772C0.740355 18.2713 0.607719 18.5918 0.475083 18.939C0.129698 19.9271 0.0233189 20.8622 0.156486 21.8242C0.44855 23.8278 1.77597 25.51 3.60848 26.2585C4.29898 26.5526 5.01601 26.686 5.7593 26.686C5.97179 26.686 6.23707 26.6594 6.44982 26.6324C7.32628 26.5257 8.22899 26.2321 9.10545 25.7246C10.1941 25.11 11.2298 24.2288 12.398 22.9466C13.5663 24.2288 14.6284 25.11 15.6906 25.7246C16.5673 26.2321 17.4698 26.5257 18.3459 26.6324C18.5584 26.6596 18.8242 26.686 19.0367 26.686C19.7803 26.686 20.5236 26.5526 21.1873 26.2585C23.0463 25.51 24.3472 23.8011 24.6395 21.8242C24.8504 20.8894 24.7443 19.9549 24.3992 18.9662ZM12.4237 20.3552C10.9897 18.5387 10.0602 16.8292 9.74184 15.3871C9.6092 14.7726 9.58241 14.2383 9.66226 13.7575C9.71505 13.3299 9.87474 12.9558 10.0872 12.6353C10.5918 11.9145 11.4414 11.4601 12.424 11.4601C13.4068 11.4601 14.283 11.8876 14.7611 12.6353C14.9735 12.9558 15.1327 13.3302 15.1863 13.7575C15.2656 14.2386 15.2391 14.7993 15.1064 15.3871C14.7868 16.8025 13.8573 18.5123 12.4237 20.3552ZM23.0182 21.6107C22.8325 22.9997 21.903 24.2022 20.6021 24.7364C19.9649 25.0033 19.2741 25.0836 18.5842 25.0033C17.9205 24.9229 17.2562 24.7092 16.5662 24.3089C15.6102 23.7741 14.6544 22.9466 13.539 21.7175C15.2913 19.5541 16.3535 17.577 16.7519 15.8144C16.9379 14.9861 16.9647 14.2383 16.8846 13.5434C16.7787 12.8758 16.5394 12.2612 16.1678 11.7269C15.3441 10.5245 13.9631 9.83041 12.4235 9.83041C10.8838 9.83041 9.50283 10.5517 8.67969 11.7269C8.30804 12.2612 8.06877 12.8758 7.96266 13.5434C7.85655 14.2383 7.88281 15.0127 8.09529 15.8144C8.49347 17.577 9.58215 19.5805 11.308 21.7442C10.2193 22.973 9.23676 23.8013 8.28072 24.3356C7.59022 24.7364 6.92677 24.9502 6.26306 25.0299C5.5463 25.1103 4.85553 25.0033 4.24487 24.7631C2.94397 24.2288 2.01446 23.0264 1.82877 21.6374C1.74919 20.9697 1.80197 20.3021 2.06778 19.5541C2.14709 19.2867 2.28026 19.0198 2.4129 18.6993C2.59885 18.2718 2.8108 17.8174 3.02355 17.3635L3.05035 17.3104C4.88232 13.3299 6.84719 9.26975 8.89191 5.31656L8.97149 5.15591C9.18424 4.75563 9.39673 4.32813 9.60894 3.92731C9.82143 3.49981 10.0602 3.09899 10.3525 2.75154C10.9101 2.11109 11.6534 1.76338 12.4768 1.76338C13.3002 1.76338 14.0435 2.11109 14.6011 2.75154C14.8934 3.09979 15.1322 3.50061 15.3447 3.92731C15.5574 4.32813 15.7699 4.75563 15.9818 5.15591L16.0617 5.31656C18.0752 9.28617 20.014 13.2937 21.877 17.337V17.3637C22.0897 17.7918 22.2754 18.2721 22.4879 18.7001C22.6206 19.0201 22.7535 19.287 22.833 19.5543C23.045 20.2482 23.1246 20.9164 23.0182 21.6107Z" fill="#718087"/>
</svg>
