<svg width="76" height="17" viewBox="0 0 76 17" fill="none" xmlns="http://www.w3.org/2000/svg">
<path d="M12.276 0.343018H15.1604V9.69536C15.1604 14.6159 12.0848 16.343 7.62271 16.343C3.17659 16.343 0.100952 14.6159 0.100952 9.69536V0.717763C0.100952 0.457071 0.22844 0.343018 0.483415 0.343018H3.36782V9.54872C3.36782 12.4978 4.64269 13.7198 7.62271 13.7198C10.6187 13.7198 11.8935 12.4978 11.8935 9.54872V0.717763C11.8935 0.457071 12.021 0.343018 12.276 0.343018ZM44.9287 2.90106V6.84404H52.2274C52.3549 6.84404 52.4027 6.90921 52.3549 7.03956L51.5581 9.05992C51.4784 9.23915 51.3668 9.32061 51.1278 9.32061H46.841C45.4387 9.32061 44.9287 9.76053 44.9287 10.7218V13.508H54.809C54.9365 13.508 54.9843 13.5732 54.9365 13.7035L54.1078 15.8053C54.0281 15.9846 53.9166 16.066 53.6776 16.066H42.8571C42.0284 16.066 41.7097 15.7728 41.7097 15.1373V1.43467C41.7097 0.668883 42.124 0.343018 43.2077 0.343018H54.809C54.9365 0.343018 54.9843 0.408191 54.9365 0.522244L54.1078 2.64037C54.0281 2.8196 53.9166 2.90106 53.6776 2.90106H44.9287ZM35.7656 11.7157C35.7656 14.8603 33.5983 16.066 30.5545 16.066H22.4909C21.6463 16.066 21.3436 15.7728 21.3436 15.1373V1.43467C21.3436 0.668883 21.7419 0.343018 22.8415 0.343018H29.3912C32.2597 0.343018 35.0325 0.848109 35.0325 4.33487C35.0325 5.83385 34.5066 7.10473 33.2477 7.77275C34.9847 8.24526 35.7656 9.842 35.7656 11.7157ZM24.5148 6.89292H29.6302C31.3194 6.89292 31.7975 6.22489 31.7975 4.85626C31.7975 3.48762 31.3194 2.83589 29.6302 2.83589H24.5148V6.89292ZM32.5306 11.4224C32.5306 9.97235 32.0366 9.25544 30.2199 9.25544H26.4431C25.0407 9.25544 24.5148 9.69536 24.5148 10.6567V13.5732H30.2199C32.0366 13.5732 32.5306 12.8563 32.5306 11.4224ZM74.9202 16.066H71.9879C71.7489 16.066 71.6533 15.9683 71.5577 15.8053L68.4502 10.0701H65.5976C64.1953 10.0701 63.6694 10.51 63.6694 11.4713V16.066H60.8647C60.6097 16.066 60.4822 15.9357 60.4822 15.6913V1.43467C60.4822 0.668883 60.8965 0.343018 61.9802 0.343018H68.5617C72.4023 0.343018 74.713 1.36949 74.713 5.18212C74.713 8.13121 73.3266 9.28803 71.6055 9.74424L75.0636 15.789C75.1273 15.8868 75.1273 16.066 74.9202 16.066ZM71.478 5.24729C71.478 3.65055 71.0477 2.86848 69.0398 2.86848H63.6694V7.62611H69.0398C71.0477 7.62611 71.478 6.86033 71.478 5.24729Z" fill="#718087"/>
</svg>
