<svg width="22" height="21" viewBox="0 0 22 21" fill="none" xmlns="http://www.w3.org/2000/svg">
<path d="M21.4041 6.22719L19.1685 4.87536V0.283746C19.1685 0.13855 19.0509 0.0211906 18.9059 0.0211906H15.5916C15.4468 0.0211906 15.3293 0.13855 15.3293 0.283746V2.55422L11.1674 0.0380134C11.141 0.022192 11.1119 0.0119782 11.0821 0.00717169C11.0152 -0.00844948 10.9451 0.00256544 10.8862 0.0380134L0.657394 6.22719C0.578888 6.27446 0.530823 6.35997 0.530823 6.4517V8.61723C0.530823 8.71135 0.581091 8.79827 0.662601 8.84494C0.744312 8.8918 0.844648 8.8914 0.925757 8.84393L2.46624 7.94332V18.522H1.73325C1.58825 18.522 1.4709 18.6394 1.4709 18.7846V20.7376C1.4709 20.8826 1.58825 21.0002 1.73325 21.0002H20.3282C20.4732 21.0002 20.5908 20.8826 20.5908 20.7376V18.7846C20.5908 18.6394 20.4732 18.522 20.3282 18.522H19.5952V7.94392L21.1359 8.84393C21.1768 8.86777 21.2224 8.87978 21.2683 8.87978C21.3134 8.87978 21.3584 8.86817 21.3989 8.84494C21.4806 8.79827 21.5307 8.71135 21.5307 8.61723V6.4517C21.5307 6.35997 21.4826 6.27446 21.4041 6.22719ZM15.8542 0.546101H18.6433V4.55793L15.8542 2.87165V0.546101ZM20.0657 20.4751H1.99581V19.0469H20.0657V20.4751ZM13.3932 18.522H8.66824V10.3233H13.3932V18.522ZM19.0703 18.522H13.9183V10.0608C13.9183 9.91558 13.8008 9.79823 13.6558 9.79823H8.40568C8.26089 9.79823 8.14333 9.91558 8.14333 10.0608V18.522H2.99115V7.6363L11.0268 2.93794L19.0703 7.6371V18.522ZM21.0057 8.16001L11.1592 2.40722C11.1184 2.38339 11.0725 2.37137 11.0268 2.37137C10.981 2.37137 10.9353 2.38339 10.8943 2.40722L1.05573 8.15961V6.5995L11.0268 0.566729L21.0057 6.5995V8.16001Z" fill="#31353B"/>
</svg>
